PathFileType	4	(X/Y/Z)	C:/Users/opensim2020/Desktop/walking_exp_matlab/subject02_walking06_straight_02.trc																																																																																																																									
DataRate	CameraRate	NumFrames	NumMarkers	Units	OrigDataRate	OrigDataStartFrame	OrigNumFrames																																																																																																																					
100	100	6	41	mm	100	1454	183																																																																																																																					
Frame#	Time	LFHD			RFHD			LBHD			RBHD			C7			T10			CLAV			STRN			RBAK			LSHO			LUPA			LELB			LFRM			LWRA			LWRB			LFIN			RSHO			RUPA			RELB			RFRM			RWRA			RWRB			RFIN			LASI			RASI			LPSI			RPSI			LTHI			LKNE			LTIB			LANK			LHEE			LTOE			RTHI			RKNE			RTIB			RANK			RHEE			RTOE			*39			*40		
		X1	Y1	Z1	X2	Y2	Z2	X3	Y3	Z3	X4	Y4	Z4	X5	Y5	Z5	X6	Y6	Z6	X7	Y7	Z7	X8	Y8	Z8	X9	Y9	Z9	X10	Y10	Z10	X11	Y11	Z11	X12	Y12	Z12	X13	Y13	Z13	X14	Y14	Z14	X15	Y15	Z15	X16	Y16	Z16	X17	Y17	Z17	X18	Y18	Z18	X19	Y19	Z19	X20	Y20	Z20	X21	Y21	Z21	X22	Y22	Z22	X23	Y23	Z23	X24	Y24	Z24	X25	Y25	Z25	X26	Y26	Z26	X27	Y27	Z27	X28	Y28	Z28	X29	Y29	Z29	X30	Y30	Z30	X31	Y31	Z31	X32	Y32	Z32	X33	Y33	Z33	X34	Y34	Z34	X35	Y35	Z35	X36	Y36	Z36	X37	Y37	Z37	X38	Y38	Z38	X39	Y39	Z39	X40	Y40	Z40	X41	Y41	Z41
																																																																																																																												
23	0.22	-536.79749	1729.12793	962.21869	-535.87823	1711.69604	1105.96106	-660.40515	1643.62427	953.71356	-672.00653	1623.57263	1095.49207	-708.73169	1509.47021	1028.23535	-768.72925	1236.83301	1039.2594	-570.2345	1436.65881	1016.99261	-523.46545	1263.86926	1038.82166	-770.1673	1342.88818	1100.5625	-642.92346	1472.94861	847.914	-708.15015	1283.84314	772.60724	-751.0484	1151.349	762.90674	-787.69965	1026.41174	743.0556	-774.33582	886.42242	758.97058	-820.23499	908.10907	733.80444	-827.21619	841.70459	725.80206	-626.62115	1483.7218	1211.42407	-622.57861	1306.82605	1319.71069	-565.16394	1174.95496	1363.93054	-485.32343	1083.24915	1381.85181	-388.35645	992.22681	1359.80627	-423.48355	969.57959	1398.22815	-359.84494	937.29547	1399.8064	-525.71655	972.55719	928.94958	-561.99011	953.50269	1186.89038	-745.35852	1016.50812	982.03546	-764.73322	1018.35449	1093.91614	-507.55334	675.10883	863.73486	-474.09232	478.63675	899.44757	-469.9032	284.02783	896.40167	-396.21494	72.2248	929.47729	-423.25018	34.82246	980.492	-242.76472	79.27971	928.75812	-721.54218	667.22229	1233.13403	-782.80231	465.31851	1194.5271	-892.22711	310.41388	1193.59167	-978.59131	135.88942	1157.2655	-1024.98853	94.21655	1099.09583	-849.75085	41.36295	1179.2196	-643.93805	1786.59009	1051.67188	-2845.95972	1033.90601	3356.78296
24	0.23	-526.05701	1727.93787	960.78027	-525.56	1710.76245	1104.22192	-650.47205	1642.71021	951.49286	-661.59094	1622.49304	1093.74841	-698.25452	1508.05249	1026.3783	-757.17725	1235.16724	1037.41235	-559.39844	1435.88135	1015.32104	-511.89661	1263.41846	1037.43762	-759.15845	1341.33032	1098.797	-631.94965	1471.62122	846.17407	-696.13098	1281.99597	771.35321	-738.89252	1149.37219	761.9292	-774.90289	1023.95306	742.9671	-761.10236	884.03149	759.93579	-806.86127	905.41821	734.17462	-814.00067	838.90771	727.07947	-616.49567	1482.79639	1209.66248	-612.99908	1305.99988	1318.146	-556.01361	1173.90002	1362.39795	-476.06134	1082.24231	1380.56018	-379.08435	991.23016	1358.0647	-414.08176	968.55634	1396.51074	-350.43729	936.38293	1398.08105	-512.64545	972.20374	926.64795	-549.16388	952.56244	1185.23035	-732.61566	1015.01941	980.18372	-751.95483	1016.81763	1091.96191	-494.95425	674.31665	862.60706	-463.49005	476.93433	897.59314	-462.57547	282.10776	895.23822	-393.54156	70.39108	930.4671	-420.90283	36.11174	983.00122	-239.68654	69.63554	924.30457	-710.73553	667.08112	1232.65857	-773.11987	465.57111	1195.229	-885.7193	312.85004	1194.20605	-975.67651	140.0722	1158.42712	-1022.76752	99.91811	1100.16577	-849.35834	41.55781	1179.79211	-633.70087	1785.40369	1049.6377	-2845.22534	1033.88928	3360.29834
25	0.24	-515.81616	1727.54187	958.53418	-515.15442	1710.24646	1102.32654	-639.8219	1641.76965	949.5658	-651.06134	1621.66345	1091.8302	-687.8587	1506.81311	1024.33911	-745.70483	1234.02136	1035.1875	-548.39697	1435.13123	1013.57593	-500.29562	1263.16406	1035.98804	-748.11023	1340.20325	1096.46704	-621.0083	1470.44568	844.28851	-684.40588	1280.24426	769.94849	-726.3609	1147.22937	761.19885	-761.2597	1021.52612	742.92468	-747.19751	881.67303	761.02979	-792.79181	902.76239	734.42914	-799.7337	835.96594	728.2489	-606.45105	1482.02173	1207.90649	-603.36615	1304.89392	1315.87866	-547.03314	1172.94861	1360.88	-467.09845	1081.05029	1378.67542	-369.98672	990.21954	1356.38525	-405.07373	967.39966	1394.68872	-341.45032	935.16821	1396.22595	-499.82388	971.78674	924.70221	-536.06763	951.83875	1183.38269	-719.61035	1013.70227	978.05151	-739.15192	1015.3205	1089.84888	-482.66852	673.70178	860.89301	-454.68234	475.72452	895.97925	-455.00281	280.48868	896.00073	-390.21777	71.14095	930.16925	-416.62961	38.44668	983.77441	-234.76897	61.07755	919.46515	-699.46704	666.97577	1232.23767	-762.8288	465.92441	1195.84241	-878.69293	315.54181	1194.77393	-972.31244	144.73682	1159.84546	-1019.72729	106.00684	1101.39038	-849.18597	41.28124	1180.35083	-623.31079	1784.68079	1048.19177	-2845.05811	1033.9436	3360.17725
26	0.25	-505.30481	1727.43054	956.77478	-504.69882	1710.17065	1100.50159	-628.6734	1641.27576	947.81647	-640.49994	1621.34204	1089.71887	-677.5495	1506.06555	1022.1283	-733.97412	1233.33838	1033.01489	-537.45758	1434.71436	1011.84985	-488.88483	1263.23718	1034.44995	-736.94214	1339.09583	1093.7605	-609.99994	1469.45862	842.18774	-672.0387	1278.56018	768.45563	-713.28827	1145.06128	760.35303	-747.80157	1018.87909	742.62341	-732.7655	879.38025	761.83728	-778.33069	900.06964	734.81628	-784.94952	833.03644	729.40295	-596.42743	1481.41687	1206.17786	-593.96008	1304.04663	1313.9884	-538.29919	1171.72595	1359.03467	-458.40317	1079.80872	1376.91394	-361.14294	989.08533	1354.76111	-396.44473	966.11938	1392.77148	-332.93652	933.75269	1394.41931	-486.89719	971.64343	922.76147	-522.62793	951.07733	1181.49023	-706.5238	1012.87146	975.71478	-726.3136	1013.87823	1087.59094	-471.64136	674.03729	858.79016	-445.63669	475.50311	893.74475	-446.96811	280.03766	896.68524	-384.47318	70.1011	927.97443	-413.07187	40.16306	981.93616	-228.94254	55.0697	917.73621	-687.56232	666.92578	1231.73193	-751.93396	466.5079	1196.54553	-871.02289	318.59506	1195.29297	-968.15796	149.96393	1161.24194	-1016.04962	112.99805	1102.53589	-848.60907	41.48154	1181.047	-613.04553	1784.25073	1046.02734	-2845.13086	1033.94214	3360.22949
27	0.26	-494.70065	1727.48914	954.86145	-494.58185	1710.27368	1098.14941	-618.15863	1641.40283	945.70673	-630.04822	1621.48218	1087.66418	-666.91272	1505.88501	1019.8299	-722.22308	1232.64233	1031.08228	-526.81995	1434.96765	1009.97852	-477.44781	1263.70154	1032.8291	-725.8537	1338.16882	1091.26111	-598.98724	1468.72485	840.06531	-659.73108	1276.93701	766.82086	-700.0434	1143.06384	759.38147	-733.5863	1016.54742	742.24725	-717.65228	877.297	762.6015	-763.20038	897.41217	735.07239	-769.4162	830.28088	730.49188	-586.56995	1481.40454	1204.76685	-584.6405	1303.36365	1312.3429	-529.76575	1170.68811	1357.14868	-450.09015	1078.5752	1374.98938	-352.9339	987.69409	1352.86926	-388.38138	964.7431	1390.68762	-324.9122	932.1156	1392.15295	-473.93271	971.79224	920.53918	-508.80804	950.37482	1179.45947	-693.51508	1012.83997	973.46985	-713.50806	1012.7923	1085.37097	-461.66086	674.94763	856.12213	-435.6412	476.12881	890.75494	-438.62463	281.04953	894.6958	-379.95309	69.16616	925.69647	-410.9122	41.76167	979.81226	-224.53595	47.25031	919.12683	-675.11005	667.21411	1231.0863	-740.09851	467.23102	1197.49963	-862.53076	322.07217	1195.87061	-963.19775	155.62593	1162.31897	-1011.18707	120.44457	1102.92542	-848.15857	41.35601	1181.1637	-602.88593	1784.54346	1043.53748	-2845.77466	1033.93274	3356.99414
28	0.27	-484.41953	1728.0155	952.51093	-484.33429	1710.75757	1095.94287	-607.9693	1641.78687	943.42731	-619.63422	1621.82898	1085.50879	-656.1521	1506.11353	1017.68073	-710.6402	1232.22571	1029.30554	-516.29242	1435.40527	1008.27393	-466.06067	1264.46521	1031.08142	-714.914	1337.45105	1088.88098	-587.82642	1468.12329	838.00623	-647.0824	1275.76038	765.22559	-686.17273	1141.35999	758.26923	-718.6756	1014.72827	741.68628	-701.68085	875.30438	763.21228	-747.2785	894.914	735.2998	-753.10535	827.59619	731.41876	-576.60657	1481.63843	1203.27966	-575.53473	1302.80188	1310.28711	-521.37213	1169.9679	1355.25317	-442.11414	1077.35352	1372.91821	-345.27536	986.2439	1350.82385	-380.91904	963.3031	1388.49097	-317.52887	930.39093	1389.96582	-460.758	972.29724	918.17981	-495.39532	950.22443	1177.07361	-680.58887	1013.61102	971.29083	-700.56226	1012.17792	1083.33362	-451.97424	675.66797	853.2804	-425.00507	477.18811	888.41748	-430.33722	282.49393	891.04895	-376.77777	69.2636	924.93842	-409.58066	42.67094	978.41125	-220.87819	42.56394	921.02014	-662.28259	667.6922	1230.3916	-727.16388	468.02954	1198.81409	-852.97998	325.8454	1196.45508	-957.57104	161.90323	1163.26282	-1005.16608	128.42651	1103.00818	-847.60529	41.32198	1181.61328	-592.51465	1784.93018	1041.31836	-2845.87622	1034.01746	3357.18262
